<svg width="32" height="32" viewBox="0 0 32 32" fill="none" xmlns="http://www.w3.org/2000/svg">
<path d="M4 8H6.66667H28" stroke="white" stroke-width="2" stroke-linecap="round" stroke-linejoin="round"/>
<path d="M10.6667 8.00008V5.33341C10.6667 4.62617 10.9476 3.94789 11.4477 3.4478C11.9478 2.9477 12.6261 2.66675 13.3334 2.66675H18.6667C19.3739 2.66675 20.0522 2.9477 20.5523 3.4478C21.0524 3.94789 21.3334 4.62617 21.3334 5.33341V8.00008M25.3334 8.00008V26.6667C25.3334 27.374 25.0524 28.0523 24.5523 28.5524C24.0522 29.0525 23.3739 29.3334 22.6667 29.3334H9.33335C8.62611 29.3334 7.94783 29.0525 7.44774 28.5524C6.94764 28.0523 6.66669 27.374 6.66669 26.6667V8.00008H25.3334Z" stroke="white" stroke-width="2" stroke-linecap="round" stroke-linejoin="round"/>
<path d="M13.3333 14.6667V22.6667" stroke="white" stroke-width="2" stroke-linecap="round" stroke-linejoin="round"/>
<path d="M18.6667 14.6667V22.6667" stroke="white" stroke-width="2" stroke-linecap="round" stroke-linejoin="round"/>
</svg>
